<svg width="68" height="68" viewBox="0 0 68 68" fill="none" xmlns="http://www.w3.org/2000/svg">
<rect width="68" height="68" rx="34" fill="#F7F8FA"/>
<path d="M49.75 18.25C50.2141 18.25 50.6593 18.4344 50.9874 18.7626C51.3156 19.0908 51.5 19.5359 51.5 20V48C51.5 48.4641 51.3156 48.9093 50.9874 49.2374C50.6593 49.5656 50.2141 49.75 49.75 49.75H18.25C17.7859 49.75 17.3408 49.5656 17.0126 49.2374C16.6844 48.9093 16.5 48.4641 16.5 48V20C16.5 19.5359 16.6844 19.0908 17.0126 18.7626C17.3408 18.4344 17.7859 18.25 18.25 18.25H49.75ZM29.4483 27H25.9483L20.3483 41H24.1178L24.8178 39.25H30.5753L31.2753 41H35.0465L29.4483 27ZM46.25 27H42.75V30.5H41C39.6334 30.4987 38.3202 31.0303 37.3393 31.9818C36.3585 32.9334 35.7873 34.2299 35.7472 35.5959C35.7071 36.9619 36.2012 38.2897 37.1246 39.2972C38.0479 40.3047 39.3277 40.9124 40.692 40.9912L41 41H46.25V27ZM42.75 34V37.5H41L40.7953 37.4878C40.3699 37.4372 39.9779 37.2323 39.6935 36.9121C39.409 36.5918 39.252 36.1783 39.252 35.75C39.252 35.3217 39.409 34.9082 39.6935 34.5879C39.9779 34.2677 40.3699 34.0628 40.7953 34.0122L41 34H42.75ZM27.6983 32.0487L29.177 35.75H26.216L27.6983 32.0487Z" fill="url(#paint0_linear_83_101)"/>
<defs>
<linearGradient id="paint0_linear_83_101" x1="48.9333" y1="-12.2656" x2="-38.2215" y2="45.6617" gradientUnits="userSpaceOnUse">
<stop stop-color="#4AD7CF"/>
<stop offset="1" stop-color="#344892"/>
</linearGradient>
</defs>
</svg>
