<svg width="26" height="32" viewBox="0 0 26 32" fill="none" xmlns="http://www.w3.org/2000/svg">
<g clip-path="url(#clip0_50_24)">
<path d="M13.0824 15.8138L13.1747 15.8151C14.0012 15.8148 14.7953 15.5022 15.3891 14.9433C15.9829 14.3843 16.33 13.6228 16.3569 12.8197V12.8146C16.3313 12.0105 15.9848 11.2478 15.3908 10.6877C14.7969 10.1277 14.0021 9.81439 13.1747 9.81412L13.0772 9.81539H13.0824L12.9901 9.81412C12.1636 9.81435 11.3696 10.127 10.7758 10.6859C10.182 11.2449 9.83491 12.0064 9.80793 12.8095V12.8146C9.83359 13.6186 10.1801 14.3814 10.774 14.9415C11.368 15.5015 12.1628 15.8148 12.9901 15.8151L13.0876 15.8138H13.0824ZM13.0824 5.321C10.978 5.26172 8.93524 6.01575 7.40148 7.41792C5.86771 8.8201 4.96801 10.7561 4.89941 12.802V12.8146C4.90182 13.7829 5.10445 14.7408 5.49525 15.6315C5.88605 16.5221 6.45704 17.3273 7.17428 17.9991L7.17688 18.0016C7.61208 17.3549 8.19369 16.8137 8.87718 16.4192L8.90058 16.4066C8.41039 15.9379 8.02069 15.3793 7.75404 14.7631C7.4874 14.147 7.34911 13.4856 7.34717 12.8171V12.8159C7.39274 11.4087 7.99944 10.074 9.03898 9.0939C10.0785 8.11385 11.4694 7.56535 12.9173 7.5644L13.0876 7.56693H13.0798L13.2423 7.5644C14.6889 7.56431 16.0788 8.1111 17.1182 9.0892C18.1577 10.0673 18.7653 11.4001 18.8125 12.8058V12.8146C18.8106 13.4846 18.6719 14.1476 18.4043 14.7651C18.1368 15.3826 17.7457 15.9423 17.2539 16.4116L17.2526 16.4129C17.9417 16.8054 18.5292 17.3463 18.9698 17.994L18.9815 18.013C19.702 17.3405 20.2758 16.5339 20.6689 15.6413C21.062 14.7486 21.2662 13.7881 21.2694 12.8171V12.8159C21.2035 10.766 20.3034 8.82538 18.7669 7.42031C17.2304 6.01524 15.183 5.26064 13.0746 5.32226H13.0863L13.0824 5.321ZM13.0824 0.834193C5.85616 0.832929 0 6.19814 0 12.8146C0.0223755 14.8892 0.605042 16.9217 1.68963 18.7084C2.77422 20.4952 4.32266 21.9735 6.17984 22.9952L6.23963 23.0256C6.15819 22.4785 6.11735 21.9264 6.11744 21.3737V21.3724C6.12394 20.9818 6.16814 20.6065 6.24613 20.2425L6.23963 20.2817C5.06483 19.3995 4.11194 18.269 3.45316 16.9757C2.79439 15.6824 2.44701 14.2603 2.43736 12.8171V12.8133C2.43736 7.43043 7.20288 3.06622 13.0811 3.06622C18.9594 3.06622 23.7249 7.43043 23.7249 12.8133C23.7164 14.2557 23.3703 15.6773 22.7128 16.9704C22.0554 18.2635 21.1039 19.3941 19.9304 20.2766L19.9083 20.293C19.9798 20.6141 20.024 20.9844 20.0331 21.3648V21.3711C20.032 21.9498 19.9877 22.5277 19.9005 23.1001L19.9083 23.0344C23.63 20.9907 26.1142 17.1889 26.1636 12.8197V12.8133C26.1636 6.19561 20.3061 0.831665 13.0811 0.831665L13.0824 0.834193ZM13.0824 17.314L12.955 17.3128C11.8187 17.3132 10.7269 17.7429 9.91025 18.5112C9.09359 19.2795 8.61596 20.3263 8.5782 21.4305V21.4368C8.5782 23.7144 10.597 31.1612 13.0811 31.1612C15.5653 31.1612 17.5841 23.7093 17.5841 21.4368C17.5477 20.3086 17.0523 19.2405 16.2065 18.4672C15.3607 17.694 14.2338 17.2787 13.0733 17.3128H13.0798L13.0824 17.314Z" fill="white"/>
</g>
<defs>
<clipPath id="clip0_50_24">
<rect y="0.833374" width="26" height="30.3333" rx="10" fill="white"/>
</clipPath>
</defs>
</svg>
