<svg width="68" height="68" viewBox="0 0 68 68" fill="none" xmlns="http://www.w3.org/2000/svg">
<rect width="68" height="68" rx="34" fill="#F7F8FA"/>
<g clip-path="url(#clip0_59_160)">
<path d="M32.7825 33.883C32.7825 27.4967 28.8563 23.1667 21.3825 23.1667H14V44.6642H21.5388C28.7975 44.6642 32.7825 40.2892 32.7825 33.8892V33.883ZM27.425 33.9155C27.425 38.5255 25.0612 40.523 21.26 40.523H19.3263V27.3067H21.26C24.8988 27.3067 27.425 29.3967 27.425 33.9142V33.9155ZM54 44.6642V23.1667H49.0525V35.1855L41.1362 23.1667H35.96V44.6642H40.915V31.793L49.385 44.658H54.0013L54 44.6642Z" fill="url(#paint0_linear_59_160)"/>
</g>
<defs>
<linearGradient id="paint0_linear_59_160" x1="51.0678" y1="2.34104" x2="-13.0757" y2="73.7368" gradientUnits="userSpaceOnUse">
<stop stop-color="#4AD7CF"/>
<stop offset="1" stop-color="#344892"/>
</linearGradient>
<clipPath id="clip0_59_160">
<rect width="40" height="40" fill="white" transform="translate(14 14)"/>
</clipPath>
</defs>
</svg>
