<svg width="32" height="32" viewBox="0 0 32 32" fill="none" xmlns="http://www.w3.org/2000/svg">
<g clip-path="url(#clip0_50_20)">
<path d="M2 12.906C1.46957 12.906 0.960859 13.1167 0.585786 13.4918C0.210714 13.8669 0 14.3756 0 14.906L0 17.078C0 19.745 4 19.745 4 17.078V14.906C4 14.3756 3.78929 13.8669 3.41421 13.4918C3.03914 13.1167 2.53043 12.906 2 12.906V12.906ZM30 12.906C29.4696 12.906 28.9609 13.1167 28.5858 13.4918C28.2107 13.8669 28 14.3756 28 14.906V17.078C28 19.745 32 19.745 32 17.078V14.906C32 14.3756 31.7893 13.8669 31.4142 13.4918C31.0391 13.1167 30.5304 12.906 30 12.906V12.906ZM8.906 19.453C8.37557 19.453 7.86686 19.6637 7.49179 20.0388C7.11671 20.4139 6.906 20.9226 6.906 21.453V23.625C6.906 26.292 10.906 26.292 10.906 23.625V21.469C10.906 20.36 10.015 19.469 8.906 19.469V19.453ZM8.906 6.359C8.37557 6.359 7.86686 6.56971 7.49179 6.94479C7.11671 7.31986 6.906 7.82857 6.906 8.359V15.505C6.906 18.172 10.906 18.172 10.906 15.505V8.349C10.906 7.24 10.015 6.349 8.906 6.349V6.359ZM23.094 6.359C21.985 6.359 21.094 7.255 21.094 8.359V10.547C21.094 13.214 25.094 13.214 25.094 10.547V8.359C25.094 7.82857 24.8833 7.31986 24.5082 6.94479C24.1331 6.56971 23.6244 6.359 23.094 6.359V6.359ZM16 0C15.4696 0 14.9609 0.210714 14.5858 0.585786C14.2107 0.960859 14 1.46957 14 2V4.172C14 6.839 18 6.839 18 4.172V2C18 1.46957 17.7893 0.960859 17.4142 0.585786C17.0391 0.210714 16.5304 0 16 0V0ZM16 25.813C15.4696 25.813 14.9609 26.0237 14.5858 26.3988C14.2107 26.7739 14 27.2826 14 27.813V30.001C13.99 32.668 17.99 32.683 18 30.017V27.829C18 26.735 17.104 25.829 16 25.829V25.813ZM23.094 14.531C21.985 14.531 21.094 15.437 21.094 16.531V23.64C21.094 26.307 25.094 26.307 25.094 23.64V16.531C25.094 16.0006 24.8833 15.4919 24.5082 15.1168C24.1331 14.7417 23.6244 14.531 23.094 14.531ZM16 8.172C14.896 8.172 14 9.078 14 10.172V21.813C14 24.48 18 24.48 18 21.813V10.188C18 9.079 17.104 8.188 16 8.188V8.172Z" fill="white"/>
</g>
<defs>
<clipPath id="clip0_50_20">
<rect width="32" height="32" fill="white"/>
</clipPath>
</defs>
</svg>
