<svg width="32" height="38" viewBox="0 0 32 38" fill="none" xmlns="http://www.w3.org/2000/svg">
<g clip-path="url(#clip0_304_1298)">
<path d="M27.1459 2.93756C25.4043 0.952575 22.2563 0.101562 18.2289 0.101562H6.54046C6.14199 0.101577 5.7566 0.243736 5.45357 0.502481C5.15054 0.761226 4.94975 1.11958 4.8873 1.51313L0.0204421 32.3799C-0.0762951 32.9886 0.395018 33.5398 1.01194 33.5398H8.22798L10.0402 22.0449L9.984 22.4049C10.1131 21.5923 10.808 20.9931 11.6309 20.9931H15.06C21.7963 20.9931 27.071 18.2569 28.6118 10.3418C28.6575 10.1077 28.6972 9.8799 28.7314 9.6573C28.5369 9.55431 28.5369 9.55431 28.7314 9.6573C29.1902 6.73181 28.7283 4.74045 27.1459 2.93756Z" fill="#27346A"/>
<path d="M12.8014 8.60344C12.9987 8.5095 13.2144 8.46082 13.4329 8.46096H22.5965C23.6816 8.46096 24.6937 8.53157 25.6186 8.68043C25.8774 8.72169 26.1348 8.77096 26.3906 8.82816C26.7531 8.90815 27.1114 9.00605 27.4642 9.12149C27.9189 9.27335 28.3423 9.4502 28.7315 9.6573C29.1902 6.73069 28.7283 4.74045 27.1459 2.93756C25.4033 0.952575 22.2563 0.101562 18.2289 0.101562H6.53946C5.71644 0.101562 5.01628 0.700733 4.8873 1.51313L0.0204428 32.3788C-0.0762945 32.9885 0.395018 33.5389 1.01094 33.5389H8.22798L11.9879 9.69579C12.0248 9.46143 12.1182 9.23957 12.2599 9.04928C12.4016 8.859 12.5874 8.70599 12.8014 8.60344Z" fill="#27346A"/>
<path d="M28.612 10.3427C27.0712 18.2567 21.7966 20.994 15.0601 20.994H11.6301C10.8072 20.994 10.1121 21.5933 9.98429 22.4058L7.72971 36.6983C7.64547 37.2309 8.05742 37.7136 8.59635 37.7136H14.6793C15.0277 37.7135 15.3647 37.5891 15.6296 37.3628C15.8946 37.1364 16.07 36.823 16.1245 36.4788L16.1837 36.1688L17.3302 28.9028L17.4041 28.5012C17.4585 28.1571 17.634 27.8436 17.8988 27.6173C18.1637 27.3909 18.5007 27.2665 18.8491 27.2664H19.7595C25.6521 27.2664 30.2661 24.8724 31.6144 17.9489C32.1772 15.0555 31.886 12.6398 30.3972 10.943C29.9457 10.4291 29.3849 10.0047 28.7316 9.6582C28.6962 9.88192 28.6578 10.1086 28.612 10.3427Z" fill="#2790C3"/>
<path d="M27.1182 9.01449C26.878 8.94434 26.6355 8.88223 26.3911 8.82827C26.1352 8.77201 25.8777 8.72307 25.6191 8.68154C24.6932 8.53168 23.6818 8.46094 22.5957 8.46094H13.4333C13.2146 8.46045 12.9987 8.50955 12.8018 8.60455C12.5876 8.70679 12.4015 8.8597 12.2598 9.05004C12.118 9.24038 12.0247 9.46241 11.9881 9.6969L10.0406 22.045L9.98438 22.405C10.1125 21.5925 10.8074 20.9932 11.6304 20.9932H15.0605C21.7968 20.9932 27.0714 18.257 28.6122 10.3419C28.658 10.1078 28.6965 9.881 28.7319 9.65741C28.3417 9.45144 27.9194 9.27346 27.4646 9.1226C27.3498 9.08456 27.2344 9.04852 27.1184 9.01449" fill="#1F264F"/>
</g>
<defs>
<clipPath id="clip0_304_1298">
<rect width="32" height="37.745" fill="white"/>
</clipPath>
</defs>
</svg>
