<svg width="68" height="68" viewBox="0 0 68 68" fill="none" xmlns="http://www.w3.org/2000/svg">
<rect width="68" height="68" rx="34" fill="#F7F8FA"/>
<path d="M25.25 27H20C19.5359 27 19.0908 27.1844 18.7626 27.5126C18.4344 27.8408 18.25 28.2859 18.25 28.75V32.25C18.25 32.7141 18.4344 33.1592 18.7626 33.4874C19.0908 33.8156 19.5359 34 20 34H23.5C23.9641 34 24.4092 34.1844 24.7374 34.5126C25.0656 34.8408 25.25 35.2859 25.25 35.75V39.25C25.25 39.7141 25.0656 40.1592 24.7374 40.4874C24.4092 40.8156 23.9641 41 23.5 41H18.25M37.5 41H30.5V27H37.5M32.25 34H35.75" stroke="url(#paint0_linear_83_93)" stroke-width="3" stroke-linecap="round" stroke-linejoin="round"/>
<path d="M48 27H44.5C43.5335 27 42.75 27.7835 42.75 28.75V39.25C42.75 40.2165 43.5335 41 44.5 41H48C48.9665 41 49.75 40.2165 49.75 39.25V28.75C49.75 27.7835 48.9665 27 48 27Z" stroke="url(#paint1_linear_83_93)" stroke-width="3" stroke-linecap="round" stroke-linejoin="round"/>
<defs>
<linearGradient id="paint0_linear_83_93" x1="36.0883" y1="13.4375" x2="-5.13475" y2="47.3435" gradientUnits="userSpaceOnUse">
<stop stop-color="#4AD7CF"/>
<stop offset="1" stop-color="#344892"/>
</linearGradient>
<linearGradient id="paint1_linear_83_93" x1="49.2367" y1="13.4375" x2="26.169" y2="20.3369" gradientUnits="userSpaceOnUse">
<stop stop-color="#4AD7CF"/>
<stop offset="1" stop-color="#344892"/>
</linearGradient>
</defs>
</svg>
