<svg width="69" height="68" viewBox="0 0 69 68" fill="none" xmlns="http://www.w3.org/2000/svg">
<path d="M32.2493 53.8337C45.5504 53.8337 56.3327 43.0514 56.3327 29.7503C56.3327 16.4492 45.5504 5.66699 32.2493 5.66699C18.9483 5.66699 8.16602 16.4492 8.16602 29.7503C8.16602 43.0514 18.9483 53.8337 32.2493 53.8337Z" stroke="url(#paint0_linear_15_432)" stroke-width="5.66667" stroke-linejoin="round"/>
<path d="M40.2625 20.3197C39.2113 19.2658 37.9621 18.43 36.5867 17.8604C35.2114 17.2907 33.7371 16.9985 32.2485 17.0005C30.7598 16.9985 29.2855 17.2907 27.9102 17.8604C26.5348 18.43 25.2856 19.2658 24.2344 20.3197M49.563 47.065L61.5834 59.0854" stroke="url(#paint1_linear_15_432)" stroke-width="5.66667" stroke-linecap="round" stroke-linejoin="round"/>
<defs>
<linearGradient id="paint0_linear_15_432" x1="52.8005" y1="-40.9945" x2="-74.5554" y2="35.1877" gradientUnits="userSpaceOnUse">
<stop stop-color="#4AD7CF"/>
<stop offset="1" stop-color="#344892"/>
</linearGradient>
<linearGradient id="paint1_linear_15_432" x1="58.8444" y1="-23.7693" x2="-45.7641" y2="31.7641" gradientUnits="userSpaceOnUse">
<stop stop-color="#4AD7CF"/>
<stop offset="1" stop-color="#344892"/>
</linearGradient>
</defs>
</svg>
