<svg width="69" height="68" viewBox="0 0 69 68" fill="none" xmlns="http://www.w3.org/2000/svg">
<path d="M9 59.5002H14.6667V42.5002H9V59.5002ZM35.8033 62.3335L27.5017 60.5202L19.2 58.5652C18.7195 58.4715 18.2878 58.2105 17.9817 57.8285C17.665 57.4577 17.4938 56.9844 17.5 56.4968V45.1635C17.508 44.6784 17.6775 44.2098 17.9817 43.8318C18.2981 43.4618 18.7253 43.2035 19.2 43.0952L32.7433 41.4235L46.315 39.7235L46.74 41.3102L47.165 42.8685C47.1725 43.3909 47.0246 43.9037 46.74 44.3418C46.4796 44.8 46.0837 45.1662 45.6067 45.3902L39.94 46.8068L34.2733 48.2235L38.8633 50.0935L43.4817 51.9352L49.9133 50.1218L56.175 48.1668C56.7314 48.0261 57.3208 48.1074 57.8183 48.3935C58.0689 48.5288 58.2889 48.7144 58.4644 48.9387C58.6399 49.163 58.7672 49.4211 58.8383 49.6968L59.3767 51.8785L59.9433 54.0318C60.0718 54.5703 59.9908 55.1375 59.7167 55.6185C59.4252 56.1038 58.9587 56.4587 58.4133 56.6102L48.1283 59.4435L37.8433 62.2768C37.5047 62.3201 37.162 62.3201 36.8233 62.2768C36.4888 62.3517 36.1441 62.3708 35.8033 62.3335ZM26 11.3335L20.3333 17.0002L14.6667 22.6668L20.3333 28.3335L26 34.0002L27.9833 32.0168L29.9667 30.0335L26.2833 26.3502L22.6 22.6668L26.2833 18.9835L29.9667 15.3002L27.9833 13.3168L26 11.3335ZM43 11.3335L41.0167 13.3168L39.0333 15.3002L42.7167 18.9835L46.4 22.6668L42.7167 26.3502L39.0333 30.0335L41.0167 32.0168L43 34.0002L48.6667 28.3335L54.3333 22.6668L48.6667 17.0002L43 11.3335Z" fill="url(#paint0_linear_15_426)"/>
<defs>
<linearGradient id="paint0_linear_15_426" x1="56.2627" y1="-38.0907" x2="-78.6142" y2="42.5656" gradientUnits="userSpaceOnUse">
<stop stop-color="#4AD7CF"/>
<stop offset="1" stop-color="#344892"/>
</linearGradient>
</defs>
</svg>
