<svg width="32" height="32" viewBox="0 0 32 32" fill="none" xmlns="http://www.w3.org/2000/svg">
<g clip-path="url(#clip0_50_22)">
<path d="M16 0C7.1635 0 0 7.16362 0 16C0 24.837 7.16362 32 16 32C24.8371 32 32 24.837 32 16C32 7.16425 24.8371 0.000875 15.9998 0.000875L15.9999 0.000125L16 0ZM23.3374 23.0767C23.0508 23.5467 22.4355 23.6957 21.9655 23.4072C18.2089 21.1126 13.4799 20.5929 7.9105 21.8654C7.6526 21.9241 7.38195 21.8779 7.15805 21.7371C6.93415 21.5963 6.77533 21.3724 6.7165 21.1145C6.68719 20.9868 6.68334 20.8547 6.70519 20.7255C6.72703 20.5964 6.77413 20.4728 6.8438 20.3619C6.91347 20.2509 7.00433 20.1549 7.11118 20.0791C7.21803 20.0033 7.33877 19.9494 7.4665 19.9204C13.5615 18.5279 18.7894 19.1274 23.0069 21.7049C23.4769 21.9934 23.6259 22.6068 23.3374 23.0767ZM25.2957 18.7201C24.9345 19.307 24.1665 19.4924 23.58 19.1313C19.2793 16.4878 12.7234 15.7221 7.6365 17.2663C6.97675 17.4655 6.28 17.0938 6.07975 16.4351C5.881 15.7754 6.253 15.0799 6.91162 14.8794C12.7222 13.1161 19.946 13.9703 24.885 17.0053C25.4715 17.3665 25.6569 18.1345 25.2957 18.7202V18.7201ZM25.4639 14.1835C20.3071 11.1205 11.7992 10.8387 6.87587 12.3333C6.08525 12.573 5.24913 12.1266 5.00962 11.336C4.77 10.545 5.21587 9.7095 6.00712 9.46912C11.6588 7.75338 21.0543 8.085 26.9911 11.6095C27.7039 12.0315 27.9369 12.95 27.5146 13.6601C27.0944 14.3714 26.1734 14.6058 25.4646 14.1835H25.4639Z" fill="white"/>
</g>
<defs>
<clipPath id="clip0_50_22">
<rect width="32" height="32" fill="white"/>
</clipPath>
</defs>
</svg>
