<svg width="68" height="69" viewBox="0 0 68 69" fill="none" xmlns="http://www.w3.org/2000/svg">
<rect y="0.5" width="68" height="68" rx="34" fill="#F7F8FA"/>
<path fill-rule="evenodd" clip-rule="evenodd" d="M13 34.3741C13 23.122 22.4023 14 34 14C45.5977 14 55 23.122 55 34.3741C55 45.6261 45.5977 54.7481 34 54.7481C22.4023 54.7481 13 45.6261 13 34.3741ZM39.3455 29.5584C39.0417 29.1654 38.5894 28.9056 38.0882 28.8361C37.5869 28.7666 37.0778 28.8932 36.6727 29.1879C36.2677 29.4827 35.9999 29.9214 35.9283 30.4077C35.8567 30.894 35.9871 31.388 36.2909 31.781L38.2955 34.3741L36.2909 36.9671C35.9871 37.3601 35.8567 37.8541 35.9283 38.3404C35.9999 38.8267 36.2677 39.2654 36.6727 39.5602C37.0778 39.8549 37.5869 39.9815 38.0882 39.912C38.5894 39.8425 39.0417 39.5827 39.3455 39.1897L40.6818 37.4616L42.0182 39.1897C42.322 39.5827 42.7742 39.8425 43.2755 39.912C43.5237 39.9464 43.7764 39.933 44.0193 39.8727C44.2621 39.8123 44.4903 39.7061 44.6909 39.5602C44.8915 39.4142 45.0604 39.2314 45.1882 39.0221C45.3159 38.8128 45.3999 38.5812 45.4354 38.3404C45.4708 38.0996 45.457 37.8544 45.3948 37.6188C45.3326 37.3831 45.2231 37.1617 45.0727 36.9671L43.0682 34.3741L45.0727 31.781C45.3765 31.388 45.507 30.894 45.4354 30.4077C45.3638 29.9214 45.096 29.4827 44.6909 29.1879C44.4903 29.042 44.2621 28.9358 44.0193 28.8754C43.7764 28.8151 43.5237 28.8017 43.2755 28.8361C42.7742 28.9056 42.322 29.1654 42.0182 29.5584L40.6818 31.2865L39.3455 29.5584ZM26.3636 30.6697C26.3636 30.1785 26.1625 29.7073 25.8045 29.36C25.4465 29.0126 24.9609 28.8175 24.4545 28.8175C23.9482 28.8175 23.4626 29.0126 23.1046 29.36C22.7466 29.7073 22.5455 30.1785 22.5455 30.6697V34.3741C22.5455 35.2872 22.8127 36.6171 23.668 37.771C24.5958 39.023 26.1231 39.9306 28.2727 39.9306C30.4224 39.9306 31.9496 39.0193 32.8775 37.771C33.7327 36.6171 34 35.289 34 34.3741V30.6697C34 30.1785 33.7989 29.7073 33.4408 29.36C33.0828 29.0126 32.5972 28.8175 32.0909 28.8175C31.5846 28.8175 31.099 29.0126 30.741 29.36C30.383 29.7073 30.1818 30.1785 30.1818 30.6697V34.3741C30.1818 34.6945 30.0673 35.2187 29.7771 35.6076C29.5595 35.9021 29.1776 36.2262 28.2727 36.2262C27.3678 36.2262 26.986 35.9021 26.7684 35.6076C26.5142 35.2426 26.3737 34.8144 26.3636 34.3741V30.6697Z" fill="url(#paint0_linear_83_109)"/>
<defs>
<linearGradient id="paint0_linear_83_109" x1="51.92" y1="-25.4747" x2="-57.3345" y2="41.8873" gradientUnits="userSpaceOnUse">
<stop stop-color="#4AD7CF"/>
<stop offset="1" stop-color="#344892"/>
</linearGradient>
</defs>
</svg>
