<?xml version="1.0" encoding="utf-8"?>
<!-- Generator: Adobe Illustrator 24.1.1, SVG Export Plug-In . SVG Version: 6.00 Build 0)  -->
<svg version="1.1" id="Layer_1" xmlns="http://www.w3.org/2000/svg" xmlns:xlink="http://www.w3.org/1999/xlink" x="0px" y="0px"
	 viewBox="0 0 160 160" style="enable-background:new 0 0 160 160;" xml:space="preserve">
<style type="text/css">
	.st0{fill:#FFFFFF;fill-opacity:0.6;}
	.st1{fill:#AEABAB;fill-opacity:0.2;}
</style>
<g>
	<circle shape-rendering="crispEdges" class="st0" cx="80.4" cy="80.6" r="79.4"/>
</g>
<path class="st1" d="M81,38.3c4.2,0,8.4,1.3,11.9,3.6c3.5,2.4,6.3,5.7,7.9,9.6c1.6,3.9,2,8.2,1.2,12.4c-0.8,4.2-2.9,8-5.9,11
	c-3,3-6.8,5-11,5.9c-4.2,0.8-8.5,0.4-12.4-1.2c-3.9-1.6-7.3-4.4-9.6-7.9c-2.4-3.5-3.6-7.7-3.6-11.9c0-5.7,2.3-11.1,6.3-15.2
	C69.8,40.5,75.3,38.3,81,38.3z M81,29.7c-5.9,0-11.7,1.8-16.7,5.1c-4.9,3.3-8.8,8-11.1,13.5c-2.3,5.5-2.9,11.5-1.7,17.3
	c1.2,5.8,4,11.2,8.2,15.4s9.5,7.1,15.4,8.2c5.8,1.2,11.9,0.6,17.3-1.7c5.5-2.3,10.2-6.1,13.5-11.1c3.3-4.9,5.1-10.7,5.1-16.7
	c0-8-3.2-15.6-8.8-21.2C96.6,32.9,88.9,29.7,81,29.7z"/>
<path class="st1" d="M123.9,149.8h-8.6v-21.4c0-5.7-2.3-11.1-6.3-15.2c-4-4-9.5-6.3-15.2-6.3H68.1c-5.7,0-11.1,2.3-15.2,6.3
	c-4,4-6.3,9.5-6.3,15.2v21.4h-8.6v-21.4c0-8,3.2-15.6,8.8-21.2c5.6-5.6,13.3-8.8,21.2-8.8h25.7c8,0,15.6,3.2,21.2,8.8
	c5.6,5.6,8.8,13.3,8.8,21.2V149.8z"/>
</svg>
