<svg width="124" height="35" viewBox="0 0 124 35" fill="none" xmlns="http://www.w3.org/2000/svg">
<path opacity="0.5" d="M28.0006 29.4379C25.561 29.4383 23.1761 28.7152 21.1475 27.3601C19.1189 26.0051 17.5376 24.0789 16.6037 21.8252C15.6698 19.5715 15.4251 17.0914 15.9007 14.6987C16.3763 12.3059 17.5507 10.1079 19.2755 8.3826C21.0003 6.65731 23.1979 5.48222 25.5906 5.00593C27.9832 4.52963 30.4633 4.77353 32.7173 5.70678C34.9713 6.64003 36.898 8.2207 38.2536 10.2489C39.6093 12.2772 40.333 14.6618 40.3334 17.1014V17.1032C40.33 20.3732 39.0296 23.5083 36.7176 25.8207C34.4055 28.1332 31.2706 29.434 28.0006 29.4379Z" fill="#EB5500"/>
<path d="M15.9987 29.4379C13.5592 29.4379 11.1744 28.7145 9.14596 27.3591C7.11754 26.0038 5.53657 24.0774 4.60299 21.8235C3.66941 19.5696 3.42514 17.0895 3.90108 14.6969C4.37701 12.3042 5.55177 10.1063 7.27681 8.3813C9.00184 6.65627 11.1997 5.4815 13.5924 5.00557C15.9851 4.52963 18.4651 4.7739 20.719 5.70748C22.9729 6.64106 24.8993 8.22203 26.2546 10.2505C27.61 12.2789 28.3334 14.6637 28.3334 17.1032C28.33 20.3735 27.0294 23.5089 24.7169 25.8214C22.4044 28.1339 19.269 29.4345 15.9987 29.4379Z" fill="#EB5500"/>
<rect x="0.5" y="1.10352" width="43" height="33" stroke="black" stroke-opacity="0.2"/>
<g clip-path="url(#clip0_304_1232)">
<path d="M92.7552 14.9375C92.7301 16.9168 94.5191 18.0212 95.8667 18.6779C97.2513 19.3517 97.7164 19.7837 97.7109 20.3863C97.7006 21.3084 96.6065 21.7154 95.5826 21.7312C93.7964 21.7589 92.7578 21.2489 91.9321 20.8633L91.2886 23.8743C92.117 24.256 93.651 24.5889 95.2416 24.6035C98.9755 24.6035 101.418 22.7604 101.432 19.9027C101.446 16.2759 96.415 16.0751 96.4494 14.454C96.4612 13.9625 96.9303 13.4379 97.9581 13.3046C98.4668 13.2372 99.8711 13.1856 101.463 13.9188L102.088 11.0056C101.232 10.6938 100.132 10.3953 98.7614 10.3953C95.247 10.3953 92.7751 12.2635 92.7552 14.9375ZM108.093 10.6462C107.411 10.6462 106.837 11.0439 106.58 11.6543L101.247 24.3895H104.978L105.72 22.3376H110.28L110.71 24.3895H113.999L111.129 10.6462H108.093ZM108.615 14.3588L109.692 19.5196H106.743L108.615 14.3588ZM88.2314 10.6464L85.2903 24.3894H88.8458L91.7855 10.6461H88.2314V10.6464ZM82.9716 10.6461L79.2709 20.0005L77.7739 12.0468C77.5982 11.1589 76.9046 10.6462 76.1342 10.6462H70.0847L70 11.0453C71.2419 11.3148 72.653 11.7495 73.5079 12.2146C74.0311 12.4987 74.1802 12.747 74.3521 13.4221L77.1875 24.3895H80.9447L86.7052 10.6462H82.9716" fill="url(#paint0_linear_304_1232)"/>
</g>
<rect x="60.5" y="0.895508" width="62.9989" height="33.2082" stroke="black" stroke-opacity="0.2"/>
<defs>
<linearGradient id="paint0_linear_304_1232" x1="90.2281" y1="24.8885" x2="90.6393" y2="10.2965" gradientUnits="userSpaceOnUse">
<stop stop-color="#222357"/>
<stop offset="1" stop-color="#254AA5"/>
</linearGradient>
<clipPath id="clip0_304_1232">
<rect width="43.9989" height="14.2082" fill="white" transform="translate(70 10.3955)"/>
</clipPath>
</defs>
</svg>
