<svg xmlns="http://www.w3.org/2000/svg" xmlns:xlink="http://www.w3.org/1999/xlink" width="276.427" height="115.31" viewBox="0 0 276.427 115.31">
  <defs>
    <linearGradient id="linear-gradient" x1="0.5" x2="0.5" y2="1" gradientUnits="objectBoundingBox">
      <stop offset="0" stop-color="#5ba9ae"/>
      <stop offset="1" stop-color="#5b86ae"/>
    </linearGradient>
  </defs>
  <g id="Group_22141" data-name="Group 22141" transform="translate(-1654.905 -28.169)">
    <g id="Group_10" data-name="Group 10" transform="translate(1836.193 28.169)">
      <g id="Group_8" data-name="Group 8" transform="translate(0 0)">
        <path id="Path_20" data-name="Path 20" d="M216.226,128.44c.973,2.825,1.809,5.691,2.765,8.522,3.028-.06,6.061-.03,9.089-.036-2.454,1.857-4.927,3.691-7.369,5.566q1.442,4.362,2.86,8.725c-2.436-1.8-4.867-3.607-7.315-5.393-2.454,1.815-4.933,3.607-7.369,5.458,1.051-2.914,1.959-5.876,2.944-8.808-2.466-1.863-4.963-3.7-7.441-5.554q4.568.009,9.137.006C214.4,134.089,215.324,131.265,216.226,128.44Z" transform="translate(-185.904 -96.634)" fill="none" stroke="#e4e4e4" stroke-linecap="round" stroke-width="2"/>
        <path id="Path_23" data-name="Path 23" d="M291.7,245.56Z" transform="translate(-221.074 -143.812)" fill="url(#linear-gradient)"/>
        <path id="Union_4" data-name="Union 4" d="M.06,105.069c1.654-1.355,3.279-2.753,4.849-4.2q1.8-.006,3.6,0c2.859,0,5.717.008,8.578-.06A106.175,106.175,0,0,1,.048,115.31C.1,111.894.071,108.484.06,105.069ZM37.414,31.346A113.551,113.551,0,0,1,.1,11.538C.042,7.692.155,3.846,0,0A106.387,106.387,0,0,0,45.667,24.592,104.736,104.736,0,0,1,34.033,76.959c-3.273-.024-6.539-.012-9.811.006A98.921,98.921,0,0,0,37.414,31.346Z" transform="translate(49.372)" fill="url(#linear-gradient)"/>
        <path id="Path_16" data-name="Path 16" d="M173.558,99.818A106.807,106.807,0,0,0,219.176,75.31c-.173,3.828-.018,7.656-.107,11.478a131.313,131.313,0,0,1-13.114,9.107,52.464,52.464,0,0,1,15.622,7.841c2.2,1.833,4.437,4.174,4.64,7.184a8,8,0,0,1-1.475,4.813c4.975,2.126,10.11,4.706,13.359,9.2a10.966,10.966,0,0,1,1.356,10.349c-1.7,4.783-5.512,8.361-9.322,11.538a12.868,12.868,0,0,0-5.518-10.851c-6.7-4.73-16.787-2.884-21.612,3.685a17.849,17.849,0,0,0-3.4,12.541c-4.819-.03-9.639-.006-14.464-.006a104.469,104.469,0,0,1-11.585-52.367m30.2,7.22c-.9,2.825-1.827,5.649-2.7,8.486q-4.568.009-9.137-.006c2.478,1.851,4.974,3.691,7.441,5.554-.985,2.932-1.893,5.894-2.944,8.808,2.436-1.851,4.915-3.643,7.369-5.458,2.449,1.786,4.879,3.589,7.315,5.393q-1.424-4.362-2.86-8.725c2.442-1.875,4.915-3.709,7.369-5.566-3.028.006-6.061-.024-9.089.036C205.567,112.729,204.73,109.863,203.757,107.038Z" transform="translate(-173.435 -75.232)" fill="url(#linear-gradient)"/>
        <path id="Path_17" data-name="Path 17" d="M276.49,174.882c10.6-12.314,17.641-27.447,21.313-43.212-1.206,15.234-6.414,29.991-13.956,43.218Q280.166,174.888,276.49,174.882Z" transform="translate(-214.947 -97.935)" fill="url(#linear-gradient)"/>
        <path id="Path_18" data-name="Path 18" d="M221.46,244.02c4.037.066,8.074.024,12.111.03q2.4,2.15,4.9,4.192c-.06,3.41-.018,6.826-.024,10.242A109.681,109.681,0,0,1,221.46,244.02Z" transform="translate(-192.78 -143.191)" fill="url(#linear-gradient)"/>
        <path id="Path_19" data-name="Path 19" d="M6.151-31.758,1.406-12.793H5.521L9.258-27.769h1.386l3.737,14.976H18.5L13.751-31.758Zm14.024,0v18.965h3.989v-7.488h8.482V-24.27H24.165v-3.5H36.649v-3.989Zm18.153,0v3.989h6.242v14.976H48.56V-27.769H54.8v-3.989Zm20.1,0L53.683-12.793H57.8l3.737-14.976h1.386l3.737,14.976h4.115L66.028-31.758Z" transform="translate(9.923 110.623)" fill="#121c5f"/>
      </g>
    </g>
    <g id="Group_17964" data-name="Group 17964" transform="translate(1654.905 28.169)">
      <path id="Path_872" data-name="Path 872" d="M-87.775-16.407a.939.939,0,0,0,.949-.949.953.953,0,0,0-.949-.949.969.969,0,0,0-.949.949A.953.953,0,0,0-87.775-16.407Zm3.379,0a.934.934,0,0,0,.926-.949.949.949,0,0,0-.926-.949.953.953,0,0,0-.949.949A.939.939,0,0,0-84.4-16.407Zm5.023,12.591a2.127,2.127,0,0,1-2.2-2.245V-8.978H-81.6l.023-.324v-4.722H-86.34A4.392,4.392,0,0,0-90.853-9.51v2.453a4.462,4.462,0,0,0,4.374,4.513,4.9,4.9,0,0,0,3.912-1.805,3.479,3.479,0,0,0,3.194,1.9h.486V-3.816Zm-3.588-1.852a4.2,4.2,0,0,1-3.518,1.759,3.11,3.11,0,0,1-3.009-3.148V-9.51a3.039,3.039,0,0,1,3.148-3.148h3.379Zm10.809,1.852a1.822,1.822,0,0,1-1.921-1.967V-13.4h-1.366v7.615a1.8,1.8,0,0,1-1.9,1.967h-1.713l-.6.231v.9l.6.231h1.713a3,3,0,0,0,2.569-1.3,3,3,0,0,0,2.43,1.3h1.551V-3.816ZM-76.619-.345A.953.953,0,0,0-77.568.6a.939.939,0,0,0,.949.949A.934.934,0,0,0-75.693.6.949.949,0,0,0-76.619-.345Zm3.333,0A.969.969,0,0,0-74.235.6a.953.953,0,0,0,.949.949A.934.934,0,0,0-72.36.6.949.949,0,0,0-73.286-.345Zm5.023-18.215V-5a1.137,1.137,0,0,1-1.157,1.18h-1.62l-.579.231v.9l.579.231h1.967A2.13,2.13,0,0,0-66.9-4.626V-18.56Zm4.652,0V-4.626a2.144,2.144,0,0,0,2.176,2.176h1.944V-3.816h-1.6A1.137,1.137,0,0,1-62.246-5V-18.56ZM-45-3.816a2.145,2.145,0,0,1-2.222-2.245V-9.51a4.392,4.392,0,0,0-4.513-4.513h-.231A4.392,4.392,0,0,0-56.482-9.51v3.449A2.145,2.145,0,0,1-58.7-3.816h-.949l-.6.208v.926l.6.231h.949a3.257,3.257,0,0,0,3.032-1.828A5.43,5.43,0,0,0-51.6-2.543,4.134,4.134,0,0,0-48.1-4.534,3.176,3.176,0,0,0-45-2.451h.787V-3.816Zm-6.6-.093a4.227,4.227,0,0,1-3.518-1.759V-9.51a3.026,3.026,0,0,1,3.148-3.148h.231A3.039,3.039,0,0,1-48.59-9.51v2.453A3.094,3.094,0,0,1-51.6-3.909Zm9.906-14.651V-5a1.137,1.137,0,0,1-1.157,1.18h-1.62l-.579.231v.9l.579.231H-42.5a2.13,2.13,0,0,0,2.176-2.176V-18.56Zm6.134,16.109V-18.56h-1.366V-2.451Zm7.939-11.573h-.231A4.405,4.405,0,0,0-32.365-9.51v2.523a4.468,4.468,0,0,0,4.328,4.513h3.564v.833c0,2.453-1.6,3.194-6.018,2.731v1.3c4.976.671,7.383-.555,7.383-3.773V-9.51A4.405,4.405,0,0,0-27.62-14.023Zm3.148,4.513v5.671H-27.99A3.094,3.094,0,0,1-31-6.987V-9.51a3.026,3.026,0,0,1,3.148-3.148h.231A3.039,3.039,0,0,1-24.472-9.51Zm11.642-6.9a.939.939,0,0,0,.949-.949.953.953,0,0,0-.949-.949.969.969,0,0,0-.949.949A.953.953,0,0,0-12.83-16.407Zm3.379,0a.934.934,0,0,0,.926-.949.949.949,0,0,0-.926-.949.953.953,0,0,0-.949.949A.939.939,0,0,0-9.451-16.407ZM-4.428-3.816a2.127,2.127,0,0,1-2.2-2.245V-8.978H-6.65l.023-.324v-4.722h-4.768A4.392,4.392,0,0,0-15.908-9.51v2.453a4.462,4.462,0,0,0,4.374,4.513A4.9,4.9,0,0,0-7.622-4.349a3.479,3.479,0,0,0,3.194,1.9h.486V-3.816ZM-8.016-5.668a4.2,4.2,0,0,1-3.518,1.759,3.11,3.11,0,0,1-3.009-3.148V-9.51a3.039,3.039,0,0,1,3.148-3.148h3.379ZM2.4-3.816A1.822,1.822,0,0,1,.479-5.737,3.1,3.1,0,0,0,.5-6.2v-7.2H-.887v7.615a1.8,1.8,0,0,1-1.9,1.967H-4.1l-.6.231v.9l.6.231h1.319a2.973,2.973,0,0,0,2.569-1.3,3,3,0,0,0,2.43,1.3h1.25V-3.816ZM-.239-.159A.953.953,0,0,0-1.188.79a.939.939,0,0,0,.949.949A.934.934,0,0,0,.687.79.949.949,0,0,0-.239-.159ZM18.486-13.931v7.916a2.213,2.213,0,0,1-2.2,2.2c-1.643,0-2.5-.694-2.5-1.782v-6.11H12.422V-5.6c0,1.042-.949,1.828-2.43,1.805C8.464-3.839,7.746-4.511,7.746-5.6v-6.11H6.381V-5.6A1.754,1.754,0,0,1,4.6-3.816H3.187l-.6.208v.926l.6.231H4.506a3.12,3.12,0,0,0,2.546-1.3,3.572,3.572,0,0,0,2.939,1.3,3.775,3.775,0,0,0,3.1-1.319,3.684,3.684,0,0,0,3.194,1.319,3.566,3.566,0,0,0,3.564-3.564v-7.916Zm4.93-4.629V-4.626a2.144,2.144,0,0,0,2.176,2.176h1.944V-3.816h-1.6A1.137,1.137,0,0,1,24.781-5V-18.56Zm17.8,14.744v-.023c-.856-.139-1.111-.139-2.708-4.166-2.245-5.439-6.087-6.828-9.744-5.347v1.25c3.426-1.366,6.226-.347,8.263,4.259.81,1.852,1.412,3.68,1.921,4.027H27.466l-.6.231v.9l.6.231H42.4V-3.816Zm15.716,0a2.145,2.145,0,0,1-2.222-2.245V-9.51A4.392,4.392,0,0,0,50.2-14.023h-.231A4.392,4.392,0,0,0,45.45-9.51v3.449a2.145,2.145,0,0,1-2.222,2.245h-.949l-.6.208v.926l.6.231h.949A3.257,3.257,0,0,0,46.26-4.279a5.43,5.43,0,0,0,4.074,1.736,4.134,4.134,0,0,0,3.495-1.991,3.176,3.176,0,0,0,3.1,2.083h.787V-3.816Zm-6.6-.093a4.227,4.227,0,0,1-3.518-1.759V-9.51a3.026,3.026,0,0,1,3.148-3.148H50.2A3.039,3.039,0,0,1,53.343-9.51v2.453A3.094,3.094,0,0,1,50.334-3.909ZM60.24-18.56V-5a1.137,1.137,0,0,1-1.157,1.18h-1.62l-.579.231v.9l.579.231H59.43a2.13,2.13,0,0,0,2.176-2.176V-18.56ZM66.374-2.451V-18.56H65.008V-2.451ZM-90.749,11.818V25.752a2.144,2.144,0,0,0,2.176,2.176h1.944V26.562h-1.6a1.137,1.137,0,0,1-1.157-1.18V11.818Zm10.832,14.744a1.822,1.822,0,0,1-1.921-1.967V16.98H-83.2v7.615a1.8,1.8,0,0,1-1.9,1.967h-1.713l-.6.231v.9l.6.231H-85.1a3,3,0,0,0,2.569-1.3,3,3,0,0,0,2.43,1.3h1.551V26.562Zm-4.467,3.472a.953.953,0,0,0-.949.949.939.939,0,0,0,.949.949.934.934,0,0,0,.926-.949A.949.949,0,0,0-84.384,30.034Zm3.333,0a.969.969,0,0,0-.949.949.953.953,0,0,0,.949.949.934.934,0,0,0,.926-.949A.949.949,0,0,0-81.051,30.034Zm13.286-7.661c-2.222-5.439-6.087-6.828-9.744-5.347v1.25c3.449-1.366,6.226-.347,8.263,4.259.81,1.852,1.435,3.68,1.944,4.027h-11.5l-.6.231v.9l.6.231h13.748V26.539C-65.891,26.4-66.169,26.4-67.766,22.373Zm-4.884,7.707a.969.969,0,0,0-.949.949.969.969,0,0,0,.949.949.949.949,0,0,0,.926-.949A.949.949,0,0,0-72.649,30.08Zm21.062-3.518h-1.481V20.868a4.405,4.405,0,0,0-4.513-4.513h-.231a4.405,4.405,0,0,0-4.513,4.513v2.523A4.468,4.468,0,0,0-58,27.9h3.564v.833c0,2.453-1.6,3.194-6.018,2.731v1.3c4.976.671,7.383-.555,7.383-3.773V27.928h1.481Zm-6.365-.023a3.094,3.094,0,0,1-3.009-3.148V20.868a3.026,3.026,0,0,1,3.148-3.148h.231a3.039,3.039,0,0,1,3.148,3.148v5.671Zm9-14.72V25.382a1.137,1.137,0,0,1-1.157,1.18h-1.62l-.579.231v.9l.579.231h1.967a2.13,2.13,0,0,0,2.176-2.176V11.818Zm15,14.744h-1.481V20.868a4.405,4.405,0,0,0-4.513-4.513h-.231a4.405,4.405,0,0,0-4.513,4.513v2.523A4.468,4.468,0,0,0-40.361,27.9H-36.8v.833c0,2.453-1.6,3.194-6.018,2.731v1.3c4.976.671,7.383-.555,7.383-3.773V27.928h1.481Zm-6.365-.023a3.094,3.094,0,0,1-3.009-3.148V20.868a3.026,3.026,0,0,1,3.148-3.148h.231A3.039,3.039,0,0,1-36.8,20.868v5.671ZM-30.548,14.9a.934.934,0,0,0,.926-.949.929.929,0,0,0-.926-.926.949.949,0,0,0-.949.926A.953.953,0,0,0-30.548,14.9Zm2.731,11.665a1.822,1.822,0,0,1-1.921-1.921,3.1,3.1,0,0,0,.023-.463v-7.2H-31.1v7.615A1.8,1.8,0,0,1-33,26.562h-1.111l-.6.231v.9l.6.231H-33a2.973,2.973,0,0,0,2.569-1.3,3,3,0,0,0,2.43,1.3h1.042V26.562Zm13.517,0V23.738A4.58,4.58,0,0,0-19,19.017h-5l3.611-7.2h-1.366l-4.212,8.332.139.231H-19a3.215,3.215,0,0,1,3.333,3.356v2.824H-27.307l-.6.208V27.7l.6.231h15.669V26.562ZM-9.393,14.9a.953.953,0,0,0,.949-.949A.953.953,0,0,0-9.393,13a.969.969,0,0,0-.949.949A.969.969,0,0,0-9.393,14.9Zm3.379,0a.949.949,0,0,0,.926-.949A.949.949,0,0,0-6.014,13a.953.953,0,0,0-.949.949A.953.953,0,0,0-6.014,14.9Zm.9,11.665a1.822,1.822,0,0,1-1.921-1.921,3.1,3.1,0,0,0,.023-.463v-7.2H-8.4v7.615a1.8,1.8,0,0,1-1.9,1.967h-1.666l-.6.231v.9l.6.231H-10.3a2.973,2.973,0,0,0,2.569-1.3,3,3,0,0,0,2.43,1.3h1.875V26.562ZM-.829,11.818V25.382a1.137,1.137,0,0,1-1.157,1.18h-1.62l-.579.231v.9l.579.231h1.967A2.13,2.13,0,0,0,.537,25.752V11.818ZM5.3,27.928V11.818H3.939V27.928Zm13.7-11.712a.937.937,0,0,0,0-1.875.937.937,0,1,0,0,1.875Zm3.356,0a.937.937,0,0,0,0-1.875.937.937,0,1,0,0,1.875ZM12.5,19.364v4.074a4.381,4.381,0,0,0,4.49,4.49h9.42a2.818,2.818,0,0,0,2.893-2.87V16.123H27.941v8.471a1.822,1.822,0,0,1-1.921,1.967H16.993a3,3,0,0,1-3.125-3.125V19.364Zm19.905-7.545V25.752a2.144,2.144,0,0,0,2.176,2.176h1.944V26.562h-1.6a1.137,1.137,0,0,1-1.157-1.18V11.818Zm3.657,16.109h2.8a2.144,2.144,0,0,0,2.176-2.176v-8.8H39.652v8.425a1.119,1.119,0,0,1-1.134,1.18H36.065Zm2.986,4.305a.949.949,0,1,0,0-1.9.949.949,0,1,0,0,1.9Zm5.092-20.414V25.752a2.144,2.144,0,0,0,2.176,2.176h1.944V26.562h-1.6a1.137,1.137,0,0,1-1.157-1.18V11.818Zm15,10.554c-2.222-5.439-6.087-6.828-9.744-5.347v1.25c3.449-1.366,6.226-.347,8.263,4.259.81,1.852,1.435,3.68,1.944,4.027H48.1l-.6.231v.9l.6.231H61.849V26.539C61.016,26.4,60.738,26.4,59.141,22.373ZM54.257,30.08a.949.949,0,0,0,0,1.9.949.949,0,0,0,0-1.9Zm12.2-18.262H65.089V27.928h1.366Zm-.718,21.41a1.568,1.568,0,0,1-.856-1.458c0-.81.3-1.134.972-1.134.625,0,1,.324,1.157,1.065h.764c-.185-1.366-.926-1.9-1.944-1.9a1.7,1.7,0,0,0-1.782,1.9,1.948,1.948,0,0,0,.625,1.528h-.88v.856h4.074v-.856Z" transform="translate(93.417 81.226)" fill="#7f8fa4"/>
      <path id="Path_871" data-name="Path 871" d="M-153.243-11.812V-27.341h-8.093a8.9,8.9,0,0,0-9.079,9.079V-7.991a6.513,6.513,0,0,1-6.82,6.82h-.246a6.491,6.491,0,0,1-6.82-6.82V-15.92h-5.505v7.929A12,12,0,0,0-177.482,4.293h.246A12.022,12.022,0,0,0-164.91-7.991V-18.262a3.418,3.418,0,0,1,3.574-3.615h2.588V-6.306h10.353v-5.505Zm4.232,0v5.505h9.285v-5.505Zm8.463,0v5.505h9.285v-5.505Zm8.463,0v5.505h9.285v-5.505Zm8.463,0v5.505h9.285v-5.505ZM-109.078-28.7a3.279,3.279,0,0,0,3.246-3.246,3.271,3.271,0,0,0-3.246-3.2,3.271,3.271,0,0,0-3.246,3.2A3.279,3.279,0,0,0-109.078-28.7Zm8.792,0a3.271,3.271,0,0,0,3.2-3.246,3.263,3.263,0,0,0-3.2-3.2,3.271,3.271,0,0,0-3.246,3.2A3.279,3.279,0,0,0-100.286-28.7Zm1.109,16.885c-2.465,0-3.081-1.52-3.081-3.328v-.945c.041-.452.041-.863.041-1.274V-25.78h-5.546l.041,5.505v5.135c0,1.808-.534,3.328-3.04,3.328h-4.19l-2.383.9v3.739l2.383.863h4.108a7.567,7.567,0,0,0,5.875-2.342,7.133,7.133,0,0,0,5.053,2.342h6.45v-5.505Zm4.93,0v5.505h9.285v-5.505Zm8.463,0v5.505H-76.5v-5.505Zm8.463,0v5.505h9.285v-5.505Zm8.463,0v5.505h9.285v-5.505Zm20.829-18.734a3.226,3.226,0,0,0,3.246-3.246A3.271,3.271,0,0,0-48.029-37a3.315,3.315,0,0,0-3.246,3.287A3.292,3.292,0,0,0-48.029-30.545Zm.164,3.122h-.452a9.2,9.2,0,0,0-9.326,9.367v2.342a6.915,6.915,0,0,0,1.274,3.9h-3.656l-2.383.863V-7.21l2.383.9h12.818a8.688,8.688,0,0,0,8.669-8.627v-3.122A9.2,9.2,0,0,0-47.864-27.423Zm3.821,11.914a3.682,3.682,0,0,1-3.7,3.7h-.822a3.819,3.819,0,0,1-3.574-3.9v-2.342a3.678,3.678,0,0,1,3.821-3.862h.452a3.678,3.678,0,0,1,3.821,3.862Zm13.475-25.636a2.785,2.785,0,0,1-1.479-2.26,1.263,1.263,0,0,1,1.4-1.356,1.664,1.664,0,0,1,1.6,1.643H-26.3c-.164-3-1.849-4.642-4.437-4.642a3.819,3.819,0,0,0-4.149,3.985,3.889,3.889,0,0,0,.986,2.629h-1.479v3.04h9.326v-3.04ZM-33.444-6.306h5.505V-34.9h-5.505Z" transform="translate(189.807 47.759)" fill="#121c5f"/>
    </g>
  </g>
</svg>
